<?xml version="1.0" encoding="UTF-8" standalone="no"?>
<!DOCTYPE svg PUBLIC "-//W3C//DTD SVG 1.0//EN" "http://www.w3.org/TR/2001/REC-SVG-20010904/DTD/svg10.dtd">
<!-- Created with Inkscape (http://www.inkscape.org/) by Marsupilami -->
<svg
        xmlns="http://www.w3.org/2000/svg"
        version="1.0"
        width="665"
        height="768"
        viewBox="-2.16969453 -2.16969453 76.66254006 88.59465306"
        id="svg3145">

    <defs
            id="defs3147"/>
    <path
            d="M 17.477982,79.58625 C 16.960482,79.685 16.414232,79.73375 15.849232,79.73375 C 14.842982,79.4875 12.441732,79.64375 12.250482,76.6175 C 12.714232,74.97875 14.397982,74.5175 16.206732,74.445 C 17.496732,74.39625 19.714232,75.475 22.462982,76.9175 C 21.097982,78.2525 19.440482,79.23625 17.477982,79.58625 M 45.342982,17.31375 C 46.269232,15.00125 46.800482,12.7025 46.792982,10.48125 C 46.775482,5.1525 44.197982,0.2525 39.879232,0 C 31.891732,0.0275 27.994232,8.325 26.661732,15.82375 C 2.8342325,19.2 -6.6120175,43.21875 4.8679825,52.59875 C 14.137982,56.4975 21.266732,51.85125 21.786732,45.33 C 15.969232,46.0275 14.035482,42.47875 14.050482,37.9375 C 14.090482,30.27375 19.164232,24.33375 26.109232,21.9875 C 26.112982,22.81125 26.155482,23.57375 26.227982,24.2575 C 26.272982,24.6475 26.316732,25.0325 26.357982,25.41125 C 26.566732,27.4 26.771732,29.2875 26.960482,31.10375 C 24.666732,32.31625 22.219232,33.46125 19.730482,34.685 L 19.807982,42.06625 C 22.181732,41.0825 24.887982,39.555 27.631732,37.63125 C 27.756732,38.89 27.879232,40.12625 27.994232,41.36875 C 28.731732,49.13125 28.635482,56.13125 27.185482,66.6875 C 26.886732,68.84625 26.172982,71.2575 25.016732,73.425 C 20.449232,71.755 16.202982,69.91625 12.972982,69.85625 C 9.9217325,69.70625 5.5617325,71.14875 4.9342325,75.28375 C 4.0067325,81.375 10.441732,84.655 16.246732,84.21625 C 17.190482,84.13875 18.115482,83.9925 19.016732,83.785 C 22.061732,83.06375 24.799232,81.56625 27.294232,79.44875 C 31.960482,81.8 37.311732,84.06875 42.150482,83.9 C 60.269232,83.2975 72.897982,68.31875 72.302982,49.76 C 71.684232,34.6575 60.696732,21.9525 45.342982,17.31375 M 36.570482,29.9875 C 38.796732,27.69 40.826732,25.215 42.485482,22.67625 C 53.606732,26.7775 58.739232,37.17875 58.399232,50.26375 C 58.082982,62.41 52.744232,71.9325 40.951732,75.51625 C 37.872982,76.44 34.544232,76.16375 31.229232,75.36625 C 37.762982,67.29375 42.350482,54.64125 46.139232,41.36875 C 39.397982,40.2375 35.454232,37.065 33.332982,33.0925 C 34.446732,32.10625 35.527982,31.0675 36.570482,29.9875 M 32.640482,15.425 C 34.232982,10.77125 36.895482,7.58375 39.104232,8.24375 C 40.730482,8.72375 41.052982,11.02625 40.504232,16.145 C 37.966732,15.68875 35.336732,15.43875 32.640482,15.425 M 31.237982,23.51625 C 31.251732,22.65 31.306732,21.79125 31.402982,20.94125 C 32.690482,20.85875 34.009232,20.88 35.340482,21.035 C 36.390482,21.1475 37.402982,21.31125 38.376732,21.5175 C 37.191732,23.49125 35.701732,25.13625 33.987982,26.5775 C 33.251732,27.1975 32.476732,27.77375 31.670482,28.32125 C 31.392982,26.95375 31.257982,25.5475 31.237982,24.14 L 31.237982,23.51625 z"
            id="path3056"
            style="fill:#2508FF;fill-opacity:1;fill-rule:evenodd;stroke:none"/>
</svg>
